name C:\Users\u0101727\Documents\MyRepositories\upper-imu-dc\Results\main_tracking\Case_62\kinematics.mot
datacolumns 10
datarows 56
range 4.83000000 5.38000000
endheader 
time	clav_prot	clav_elev	scapula_abduction	scapula_elevation	scapula_upward_rot	scapula_winging	plane_elv	shoulder_elv	axial_rot	
          4.83000000	        -21.97923883	         30.09577869	         -1.88976738	         14.27120062	         47.62177383	         -1.77535880	         64.77143067	         68.83019767	        -15.10956019	
          4.84000000	        -21.69232520	         30.02948790	         -1.49522933	         14.27935199	         47.36954937	         -1.69612472	         64.57087716	         67.88983468	        -15.08616240	
          4.85000000	        -21.41000382	         29.96224901	         -1.10534507	         14.28592050	         47.12012579	         -1.62139078	         64.35788909	         66.94846762	        -15.05203484	
          4.86000000	        -21.13215426	         29.89378342	         -0.72011334	         14.29075944	         46.87315033	         -1.55106662	         64.13271723	         66.00679856	        -15.00884231	
          4.87000000	        -20.85895564	         29.82381635	         -0.34026506	         14.29371177	         46.62821386	         -1.48508451	         63.89567535	         65.06559528	        -14.95827088	
          4.88000000	        -20.59112815	         29.75211703	          0.03219639	         14.29462170	         46.38488245	         -1.42339696	         63.64714970	         64.12568176	        -14.90194970	
          4.89000000	        -20.33031229	         29.67854804	          0.39314455	         14.29334509	         46.14273381	         -1.36596886	         63.38760569	         63.18792629	        -14.84137108	
          4.90000000	        -20.07968039	         29.60312618	          0.73495739	         14.28975580	         45.90139909	         -1.31276243	         63.11759091	         62.25322915	        -14.77781566	
          4.91000000	        -19.84490532	         29.52609752	          1.04434259	         14.28374353	         45.66060964	         -1.26371128	         62.83773242	         61.32251072	        -14.71229085	
          4.92000000	        -19.63546077	         29.44801430	          1.29943349	         14.27519722	         45.42024831	         -1.21867822	         62.54872767	         60.39670074	        -14.64549498	
          4.93000000	        -19.46506308	         29.36971205	          1.46891211	         14.26397028	         45.18040421	         -1.17739746	         62.25133537	         59.47672945	        -14.57782515	
          4.94000000	        -19.34639214	         29.29182842	          1.52432753	         14.24984368	         44.94142288	         -1.13943787	         61.94639618	         58.56352022	        -14.50945438	
          4.95000000	        -19.27678148	         29.21371326	          1.47302010	         14.23254773	         44.70391383	         -1.10430025	         61.63494263	         57.65798350	        -14.44049108	
          4.96000000	        -19.23626344	         29.13348458	          1.36220842	         14.21186783	         44.46865162	         -1.07166099	         61.31836426	         56.76104736	        -14.37116100	
          4.97000000	        -19.20802981	         29.04974069	          1.23163160	         14.18767315	         44.23647509	         -1.04149613	         60.99840913	         55.87366897	        -14.30189920	
          4.98000000	        -19.18610036	         28.96202785	          1.09607040	         14.15983379	         44.00827993	         -1.01399308	         60.67701904	         54.99680272	        -14.23332055	
          4.99000000	        -19.16937260	         28.87025750	          0.95918526	         14.12816991	         43.78503560	         -0.98944450	         60.35618223	         54.13137347	        -14.16614712	
          5.00000000	        -19.15769542	         28.77438305	          0.82255999	         14.09245538	         43.56779148	         -0.96820057	         60.03783347	         53.27823977	        -14.10115171	
          5.01000000	        -19.15099257	         28.67433929	          0.68767474	         14.05243103	         43.35765217	         -0.95064808	         59.72377520	         52.43814589	        -14.03913181	
          5.02000000	        -19.14916809	         28.57002458	          0.55605900	         14.00780789	         43.15571582	         -0.93719437	         59.41566962	         51.61165552	        -13.98095562	
          5.03000000	        -19.15207951	         28.46130319	          0.42926348	         13.95828410	         42.96300121	         -0.92824052	         59.11495966	         50.79916707	        -13.92763069	
          5.04000000	        -19.15946769	         28.34774782	          0.30875351	         13.90343121	         42.78001179	         -0.92415871	         58.82232519	         50.00128944	        -13.88040001	
          5.05000000	        -19.17121195	         28.22877333	          0.19520521	         13.84278715	         42.60671342	         -0.92522492	         58.53834707	         49.21801604	        -13.84006000	
          5.06000000	        -19.18644757	         28.10572992	          0.09016810	         13.77723833	         42.44398225	         -0.93108308	         58.26498171	         48.44851751	        -13.80645438	
          5.07000000	        -19.20573422	         27.97755305	         -0.00661037	         13.70590388	         42.29191946	         -0.94227921	         58.00629219	         47.69269827	        -13.78065510	
          5.08000000	        -19.22690511	         27.84543192	         -0.09214002	         13.62986548	         42.15005683	         -0.95805896	         57.76210624	         46.95037135	        -13.76184187	
          5.09000000	        -19.25186693	         27.70862258	         -0.17121603	         13.54861371	         42.01733904	         -0.97848482	         57.53028833	         46.22080059	        -13.74769643	
          5.10000000	        -19.27629089	         27.56839537	         -0.23562866	         13.46333775	         41.89383567	         -1.00285209	         57.31064713	         45.50133149	        -13.73654211	
          5.11000000	        -19.30577204	         27.42617674	         -0.30038475	         13.37498982	         41.77824237	         -1.03029313	         57.10709924	         44.78714546	        -13.72761210	
          5.12000000	        -19.32718352	         27.28375602	         -0.34026726	         13.28592896	         41.66920807	         -1.05915867	         56.92732478	         44.07141099	        -13.72134292	
          5.13000000	        -19.35966267	         27.13998138	         -0.40269228	         13.19524890	         41.56040140	         -1.08858406	         56.76887359	         43.35275077	        -13.71760154	
          5.14000000	        -19.37563452	         26.99507433	         -0.42652306	         13.10446905	         41.45352519	         -1.11810325	         56.63766635	         42.62948342	        -13.71474077	
          5.15000000	        -19.41880743	         26.85340279	         -0.50799699	         13.01396555	         41.35014246	         -1.14773746	         56.53500994	         41.90189470	        -13.71079571	
          5.16000000	        -19.42392981	         26.71061342	         -0.50183203	         12.92416919	         41.25143356	         -1.17765224	         56.46143775	         41.17050736	        -13.70376696	
          5.17000000	        -19.48043382	         26.57444361	         -0.60551398	         12.83533982	         41.15837949	         -1.20772916	         56.41687774	         40.43586504	        -13.69174999	
          5.18000000	        -19.27058075	         26.42042418	         -0.11828083	         12.74794503	         41.07129629	         -1.23935115	         56.40174124	         39.69816678	        -13.67296557	
          5.19000000	        -19.52498757	         26.30571270	         -0.64926172	         12.66133331	         40.99133244	         -1.26895868	         56.41226463	         38.95845420	        -13.64545535	
          5.20000000	        -19.54013546	         26.17535601	         -0.65110507	         12.57643394	         40.91584274	         -1.29961848	         56.44796783	         38.21882347	        -13.60802789	
          5.21000000	        -19.57398748	         26.04984353	         -0.69189277	         12.49323978	         40.84519367	         -1.33001604	         56.50953528	         37.47928262	        -13.56092840	
          5.22000000	        -19.59307192	         25.92642188	         -0.69845396	         12.41174357	         40.77907572	         -1.36017000	         56.59580231	         36.74015346	        -13.50471356	
          5.23000000	        -19.62039054	         25.80654481	         -0.72092123	         12.33166085	         40.71743236	         -1.39020584	         56.70510672	         36.00161225	        -13.44051365	
          5.24000000	        -19.64238317	         25.68869972	         -0.72940055	         12.25268795	         40.66015499	         -1.42030309	         56.83558694	         35.26396001	        -13.36983842	
          5.25000000	        -19.66618375	         25.57291218	         -0.73910235	         12.17442712	         40.60717304	         -1.45066315	         56.98517416	         34.52757832	        -13.29460925	
          5.26000000	        -19.68873339	         25.45835390	         -0.74292101	         12.09644711	         40.55845435	         -1.48152253	         57.15170684	         33.79291132	        -13.21702845	
          5.27000000	        -19.71139543	         25.34454692	         -0.74332575	         12.01830381	         40.51403048	         -1.51312609	         57.33299523	         33.06042903	        -13.13948822	
          5.28000000	        -19.73386052	         25.23090876	         -0.73911588	         11.93956613	         40.47399094	         -1.54572019	         57.52688493	         32.33058796	        -13.06447622	
          5.29000000	        -19.75634753	         25.11695112	         -0.73024274	         11.85983514	         40.43846945	         -1.57953708	         57.73130162	         31.60378148	        -12.99452305	
          5.30000000	        -19.77889605	         25.00224794	         -0.71631459	         11.77876608	         40.40762327	         -1.61478012	         57.94431441	         30.88028984	        -12.93214127	
          5.31000000	        -19.80155917	         24.88646605	         -0.69704745	         11.69608314	         40.38161328	         -1.65161234	         58.16418650	         30.16023538	        -12.87980696	
          5.32000000	        -19.82434400	         24.76935752	         -0.67215771	         11.61158144	         40.36058012	         -1.69015118	         58.38940292	         29.44356296	        -12.83994370	
          5.33000000	        -19.84729517	         24.65076448	         -0.64153313	         11.52512449	         40.34464975	         -1.73047206	         58.61867738	         28.73001467	        -12.81492359	
          5.34000000	        -19.54664389	         24.50497231	          0.08874899	         11.43678042	         40.33275231	         -1.77433771	         58.85141047	         28.01964459	        -12.80692588	
          5.35000000	        -19.95920879	         24.41205386	         -0.70403939	         11.34502054	         40.32589326	         -1.81659271	         59.08228073	         27.31283703	        -12.81753965	
          5.36000000	        -19.92271204	         24.28319584	         -0.53067525	         11.25257646	         40.32206769	         -1.86139942	         59.31488771	         26.60925517	        -12.84791281	
          5.37000000	        -19.93847871	         24.15763437	         -0.46528214	         11.15887249	         40.32197998	         -1.90730386	         59.54701413	         25.90796255	        -12.90027937	
          5.38000000	        -19.61932369	         24.00462197	          0.31737804	         11.06398493	         40.32470044	         -1.95618076	         59.77821696	         25.20840121	        -12.97571312	
